<svg width="256" height="256" viewBox="0 0 256 256" fill="none" xmlns="http://www.w3.org/2000/svg">
<rect width="256" height="256" fill="white"/>
<path d="M94.5 100.438C90.7917 100.438 87.5 101.167 84.625 102.625C81.7917 104.042 79.3958 106.104 77.4375 108.812C75.5208 111.521 74.0625 114.792 73.0625 118.625C72.0625 122.458 71.5625 126.771 71.5625 131.562C71.5625 138.021 72.3542 143.542 73.9375 148.125C75.5625 152.667 78.0625 156.146 81.4375 158.562C84.8125 160.938 89.1667 162.125 94.5 162.125C98.2083 162.125 101.917 161.708 105.625 160.875C109.375 160.042 113.438 158.854 117.812 157.312V173.562C113.771 175.229 109.792 176.417 105.875 177.125C101.958 177.875 97.5625 178.25 92.6875 178.25C83.2708 178.25 75.5208 176.312 69.4375 172.438C63.3958 168.521 58.9167 163.062 56 156.062C53.0833 149.021 51.625 140.812 51.625 131.438C51.625 124.521 52.5625 118.188 54.4375 112.438C56.3125 106.688 59.0625 101.708 62.6875 97.5C66.3125 93.2917 70.7917 90.0417 76.125 87.75C81.4583 85.4583 87.5833 84.3125 94.5 84.3125C99.0417 84.3125 103.583 84.8958 108.125 86.0625C112.708 87.1875 117.083 88.75 121.25 90.75L115 106.5C111.583 104.875 108.146 103.458 104.688 102.25C101.229 101.042 97.8333 100.438 94.5 100.438ZM137.312 85.625H165.75C177.917 85.625 187.125 87.3333 193.375 90.75C199.625 94.1667 202.75 100.167 202.75 108.75C202.75 112.208 202.188 115.333 201.062 118.125C199.979 120.917 198.396 123.208 196.312 125C194.229 126.792 191.688 127.958 188.688 128.5V129.125C191.729 129.75 194.479 130.833 196.938 132.375C199.396 133.875 201.354 136.083 202.812 139C204.312 141.875 205.062 145.708 205.062 150.5C205.062 156.042 203.708 160.792 201 164.75C198.292 168.708 194.417 171.75 189.375 173.875C184.375 175.958 178.417 177 171.5 177H137.312V85.625ZM156.688 121.812H167.938C173.562 121.812 177.458 120.938 179.625 119.188C181.792 117.396 182.875 114.771 182.875 111.312C182.875 107.812 181.583 105.312 179 103.812C176.458 102.271 172.417 101.5 166.875 101.5H156.688V121.812ZM156.688 137.188V161H169.312C175.146 161 179.208 159.875 181.5 157.625C183.792 155.375 184.938 152.354 184.938 148.562C184.938 146.312 184.438 144.333 183.438 142.625C182.438 140.917 180.75 139.583 178.375 138.625C176.042 137.667 172.812 137.188 168.688 137.188H156.688Z" fill="black"/>
</svg>
